<svg xmlns="http://www.w3.org/2000/svg" viewBox="0 0 5 5" shape-rendering="crispEdges"><rect width="5" height="5" fill="hsl(274.02197802197804,51.27450980392157%,90%)"/><rect x="2" y="0" width="1" height="1" fill="hsl(274.02197802197804,51.27450980392157%,64.25490196078431%)"/><rect x="2" y="2" width="1" height="1" fill="hsl(274.02197802197804,51.27450980392157%,64.25490196078431%)"/><rect x="2" y="3" width="1" height="1" fill="hsl(274.02197802197804,51.27450980392157%,64.25490196078431%)"/><rect x="2" y="4" width="1" height="1" fill="hsl(274.02197802197804,51.27450980392157%,64.25490196078431%)"/><rect x="1" y="0" width="1" height="1" fill="hsl(274.02197802197804,51.27450980392157%,64.25490196078431%)"/><rect x="3" y="0" width="1" height="1" fill="hsl(274.02197802197804,51.27450980392157%,64.25490196078431%)"/><rect x="1" y="3" width="1" height="1" fill="hsl(274.02197802197804,51.27450980392157%,64.25490196078431%)"/><rect x="3" y="3" width="1" height="1" fill="hsl(274.02197802197804,51.27450980392157%,64.25490196078431%)"/><rect x="0" y="0" width="1" height="1" fill="hsl(274.02197802197804,51.27450980392157%,64.25490196078431%)"/><rect x="4" y="0" width="1" height="1" fill="hsl(274.02197802197804,51.27450980392157%,64.25490196078431%)"/><rect x="0" y="1" width="1" height="1" fill="hsl(274.02197802197804,51.27450980392157%,64.25490196078431%)"/><rect x="4" y="1" width="1" height="1" fill="hsl(274.02197802197804,51.27450980392157%,64.25490196078431%)"/><rect x="0" y="2" width="1" height="1" fill="hsl(274.02197802197804,51.27450980392157%,64.25490196078431%)"/><rect x="4" y="2" width="1" height="1" fill="hsl(274.02197802197804,51.27450980392157%,64.25490196078431%)"/><rect x="0" y="3" width="1" height="1" fill="hsl(274.02197802197804,51.27450980392157%,64.25490196078431%)"/><rect x="4" y="3" width="1" height="1" fill="hsl(274.02197802197804,51.27450980392157%,64.25490196078431%)"/></svg>